# Blender v2.78 (sub 0) OBJ File: ''
# www.blender.org
mtllib shere2.mtl
o Mball
v 0.674678 0.521739 -0.521739
v 0.521739 0.521739 -0.674678
v 0.521739 0.674678 -0.521739
v 0.835468 0.173913 -0.521739
v 0.521739 0.173913 -0.835468
v 0.835468 -0.173913 -0.521739
v 0.521739 -0.173913 -0.835468
v 0.869565 0.173913 -0.461040
v 0.869565 -0.173913 -0.461040
v 0.969660 0.173913 -0.173913
v 0.969660 -0.173913 -0.173913
v 0.869565 -0.461040 -0.173913
v 0.969660 -0.173913 0.173913
v 0.869565 -0.461040 0.173913
v 0.869565 -0.173913 0.461040
v 0.969660 0.173913 0.173913
v 0.869565 0.173913 0.461040
v 0.869565 0.461040 0.173913
v 0.869565 0.461040 -0.173913
v 0.835468 0.521739 -0.173913
v 0.835468 0.521739 0.173913
v 0.521739 0.835468 -0.173913
v 0.521739 0.835468 0.173913
v 0.461040 0.869565 -0.173913
v 0.461040 0.869565 0.173913
v 0.173913 0.969660 -0.173913
v 0.173913 0.969660 0.173913
v 0.173913 0.869565 0.461040
v -0.173913 0.869565 0.461040
v -0.173913 0.969660 0.173913
v 0.173913 0.835468 0.521739
v -0.173913 0.835468 0.521739
v -0.173913 0.521739 0.835468
v 0.173913 0.521739 0.835468
v 0.173913 0.461040 0.869565
v -0.173913 0.461040 0.869565
v -0.173913 0.173913 0.969660
v 0.173913 0.173913 0.969660
v 0.173913 -0.173913 0.969660
v -0.173913 -0.173913 0.969660
v 0.173913 -0.461040 0.869565
v -0.173913 -0.461040 0.869565
v -0.173913 -0.521739 0.835468
v 0.173913 -0.521739 0.835468
v 0.173913 -0.835468 0.521739
v -0.173913 -0.835468 0.521739
v -0.173913 -0.869565 0.461040
v 0.173913 -0.869565 0.461040
v 0.173913 -0.969660 0.173913
v -0.173913 -0.969660 0.173913
v -0.173913 -0.969660 -0.173913
v 0.173913 -0.969660 -0.173913
v -0.173913 -0.869565 -0.461040
v 0.173913 -0.869565 -0.461040
v 0.173913 -0.835468 -0.521739
v -0.173913 -0.835468 -0.521739
v -0.173913 -0.521739 -0.835468
v 0.173913 -0.521739 -0.835468
v 0.173913 -0.461040 -0.869565
v -0.173913 -0.461040 -0.869565
v -0.173913 -0.173913 -0.969660
v 0.173913 -0.173913 -0.969660
v -0.173913 0.173913 -0.969660
v 0.173913 0.173913 -0.969660
v 0.173913 0.461040 -0.869565
v -0.173913 0.461040 -0.869565
v -0.173913 0.521739 -0.835468
v 0.173913 0.521739 -0.835468
v 0.173913 0.835468 -0.521739
v -0.173913 0.835468 -0.521739
v -0.173913 0.869565 -0.461040
v 0.173913 0.869565 -0.461040
v -0.173913 0.969660 -0.173913
v -0.461040 0.869565 -0.173913
v -0.461040 0.869565 0.173913
v -0.521739 0.835468 -0.173913
v -0.521739 0.835468 0.173913
v -0.835468 0.521739 -0.173913
v -0.835468 0.521739 0.173913
v -0.869565 0.461040 -0.173913
v -0.869565 0.461040 0.173913
v -0.674678 0.521739 -0.521739
v -0.835468 0.173913 -0.521739
v -0.869565 0.173913 -0.461040
v -0.835468 -0.173913 -0.521739
v -0.869565 -0.173913 -0.461040
v -0.674678 -0.521739 -0.521739
v -0.835468 -0.521739 -0.173913
v -0.869565 -0.461040 -0.173913
v -0.521739 -0.173913 -0.835468
v -0.521739 -0.521739 -0.674678
v -0.521739 -0.674678 -0.521739
v -0.835468 -0.521739 0.173913
v -0.869565 -0.461040 0.173913
v -0.521739 -0.835468 -0.173913
v -0.521739 -0.835468 0.173913
v -0.674678 -0.521739 0.521739
v -0.521739 -0.674678 0.521739
v -0.461040 -0.869565 -0.173913
v -0.461040 -0.869565 0.173913
v -0.835468 -0.173913 0.521739
v -0.869565 -0.173913 0.461040
v -0.835468 0.173913 0.521739
v -0.869565 0.173913 0.461040
v -0.521739 0.173913 0.835468
v -0.521739 -0.173913 0.835468
v -0.461040 -0.173913 0.869565
v -0.461040 0.173913 0.869565
v -0.969660 0.173913 0.173913
v -0.969660 -0.173913 0.173913
v -0.969660 0.173913 -0.173913
v -0.969660 -0.173913 -0.173913
v -0.521739 -0.521739 0.674678
v -0.521739 0.173913 -0.835468
v -0.461040 0.173913 -0.869565
v -0.461040 -0.173913 -0.869565
v -0.521739 0.521739 -0.674678
v -0.521739 0.674678 -0.521739
v -0.674678 0.521739 0.521739
v -0.521739 0.674678 0.521739
v -0.521739 0.521739 0.674678
v 0.461040 0.173913 -0.869565
v 0.461040 -0.173913 -0.869565
v 0.521739 -0.521739 -0.674678
v 0.521739 -0.674678 -0.521739
v 0.674678 -0.521739 -0.521739
v 0.835468 -0.521739 -0.173913
v 0.521739 -0.835468 -0.173913
v 0.835468 -0.521739 0.173913
v 0.521739 -0.835468 0.173913
v 0.674678 -0.521739 0.521739
v 0.521739 -0.674678 0.521739
v 0.521739 -0.521739 0.674678
v 0.835468 -0.173913 0.521739
v 0.521739 -0.173913 0.835468
v 0.835468 0.173913 0.521739
v 0.521739 0.173913 0.835468
v 0.674678 0.521739 0.521739
v 0.521739 0.521739 0.674678
v 0.521739 0.674678 0.521739
v 0.461040 0.173913 0.869565
v 0.461040 -0.173913 0.869565
v 0.461040 -0.869565 0.173913
v 0.461040 -0.869565 -0.173913
vn 0.7104 0.4976 -0.4976
vn 0.4988 0.4985 -0.7090
vn 0.4976 0.7104 -0.4976
vn 0.7942 0.1885 -0.5777
vn 0.5741 0.1815 -0.7984
vn 0.7984 -0.1815 -0.5741
vn 0.5777 -0.1885 -0.7942
vn 0.8847 0.2058 -0.4183
vn 0.8958 -0.1872 -0.4031
vn 0.9734 0.1621 -0.1621
vn 0.9734 -0.1621 -0.1621
vn 0.8926 -0.4108 -0.1858
vn 0.9734 -0.1621 0.1621
vn 0.8964 -0.4008 0.1893
vn 0.8847 -0.2058 0.4183
vn 0.9734 0.1621 0.1621
vn 0.8958 0.1872 0.4031
vn 0.8926 0.4108 0.1858
vn 0.8964 0.4008 -0.1893
vn 0.7998 0.5718 -0.1826
vn 0.7906 0.5867 0.1755
vn 0.5718 0.7998 -0.1826
vn 0.5774 0.7945 0.1882
vn 0.4008 0.8964 -0.1893
vn 0.4183 0.8847 0.2058
vn 0.1621 0.9734 -0.1621
vn 0.1621 0.9734 0.1621
vn 0.2058 0.8847 0.4183
vn -0.1858 0.8926 0.4108
vn -0.1621 0.9734 0.1621
vn 0.1882 0.7945 0.5774
vn -0.1755 0.7906 0.5867
vn -0.1826 0.5718 0.7998
vn 0.1826 0.5718 0.7998
vn 0.1893 0.4008 0.8964
vn -0.1893 0.4008 0.8964
vn -0.1621 0.1621 0.9734
vn 0.1621 0.1621 0.9734
vn 0.1621 -0.1621 0.9734
vn -0.1621 -0.1621 0.9734
vn 0.1858 -0.4108 0.8926
vn -0.1858 -0.4108 0.8926
vn -0.1755 -0.5867 0.7906
vn 0.1755 -0.5867 0.7906
vn 0.1885 -0.7942 0.5777
vn -0.1815 -0.7984 0.5741
vn -0.1872 -0.8958 0.4031
vn 0.2058 -0.8847 0.4183
vn 0.1621 -0.9734 0.1621
vn -0.1621 -0.9734 0.1621
vn -0.1621 -0.9734 -0.1621
vn 0.1621 -0.9734 -0.1621
vn -0.2058 -0.8847 -0.4183
vn 0.2058 -0.8847 -0.4183
vn 0.1882 -0.7945 -0.5774
vn -0.1882 -0.7945 -0.5774
vn -0.1815 -0.5741 -0.7984
vn 0.1826 -0.5718 -0.7998
vn 0.1893 -0.4008 -0.8964
vn -0.1872 -0.4031 -0.8958
vn -0.1621 -0.1621 -0.9734
vn 0.1621 -0.1621 -0.9734
vn -0.1621 0.1621 -0.9734
vn 0.1621 0.1621 -0.9734
vn 0.1858 0.4108 -0.8926
vn -0.2058 0.4183 -0.8847
vn -0.1882 0.5774 -0.7945
vn 0.1755 0.5867 -0.7906
vn 0.1885 0.7942 -0.5777
vn -0.1826 0.7998 -0.5718
vn -0.1893 0.8964 -0.4008
vn 0.2058 0.8847 -0.4183
vn -0.1621 0.9734 -0.1621
vn -0.4183 0.8847 -0.2058
vn -0.4031 0.8958 0.1872
vn -0.5777 0.7942 -0.1886
vn -0.5741 0.7984 0.1815
vn -0.7906 0.5867 -0.1755
vn -0.7998 0.5718 0.1826
vn -0.8926 0.4108 -0.1858
vn -0.8964 0.4008 0.1893
vn -0.7090 0.4985 -0.4988
vn -0.7984 0.1815 -0.5741
vn -0.8958 0.1872 -0.4031
vn -0.7942 -0.1885 -0.5777
vn -0.8847 -0.2058 -0.4183
vn -0.7104 -0.4976 -0.4976
vn -0.7998 -0.5718 -0.1826
vn -0.8964 -0.4008 -0.1893
vn -0.5867 -0.1755 -0.7906
vn -0.4985 -0.4988 -0.7090
vn -0.4960 -0.7127 -0.4960
vn -0.7906 -0.5867 0.1755
vn -0.8926 -0.4108 0.1858
vn -0.5774 -0.7945 -0.1882
vn -0.5867 -0.7906 0.1755
vn -0.7090 -0.4985 0.4988
vn -0.4985 -0.7090 0.4988
vn -0.4183 -0.8847 -0.2058
vn -0.4108 -0.8926 0.1858
vn -0.7984 -0.1815 0.5741
vn -0.8958 -0.1872 0.4031
vn -0.7942 0.1885 0.5777
vn -0.8847 0.2058 0.4183
vn -0.5777 0.1885 0.7942
vn -0.5741 -0.1815 0.7984
vn -0.4031 -0.1872 0.8958
vn -0.4183 0.2058 0.8847
vn -0.9734 0.1621 0.1621
vn -0.9734 -0.1621 0.1621
vn -0.9734 0.1621 -0.1621
vn -0.9734 -0.1621 -0.1621
vn -0.4988 -0.4985 0.7090
vn -0.5774 0.1882 -0.7945
vn -0.4183 0.2058 -0.8847
vn -0.4108 -0.1858 -0.8926
vn -0.4960 0.4960 -0.7127
vn -0.4976 0.7104 -0.4976
vn -0.7104 0.4976 0.4976
vn -0.4988 0.7090 0.4985
vn -0.4976 0.4976 0.7104
vn 0.4031 0.1872 -0.8958
vn 0.4183 -0.2058 -0.8847
vn 0.4976 -0.4976 -0.7104
vn 0.4960 -0.7127 -0.4960
vn 0.7090 -0.4985 -0.4988
vn 0.7906 -0.5867 -0.1755
vn 0.5774 -0.7945 -0.1882
vn 0.7998 -0.5718 0.1826
vn 0.5718 -0.7998 0.1826
vn 0.7104 -0.4976 0.4976
vn 0.4976 -0.7104 0.4976
vn 0.4988 -0.4985 0.7090
vn 0.7942 -0.1885 0.5777
vn 0.5741 -0.1815 0.7984
vn 0.7984 0.1815 0.5741
vn 0.5777 0.1885 0.7942
vn 0.7090 0.4985 0.4988
vn 0.4976 0.4976 0.7104
vn 0.4960 0.7127 0.4960
vn 0.4183 0.2058 0.8847
vn 0.4031 -0.1872 0.8958
vn 0.4008 -0.8964 0.1893
vn 0.4183 -0.8847 -0.2058
usemtl None
s 1
f 1//1 2//2 3//3
f 2//2 1//1 4//4 5//5
f 5//5 4//4 6//6 7//7
f 6//6 4//4 8//8 9//9
f 8//8 10//10 11//11 9//9
f 9//9 11//11 12//12
f 12//12 11//11 13//13 14//14
f 13//13 15//15 14//14
f 13//13 16//16 17//17 15//15
f 17//17 16//16 18//18
f 16//16 10//10 19//19 18//18
f 19//19 20//20 21//21 18//18
f 21//21 20//20 22//22 23//23
f 22//22 24//24 25//25 23//23
f 25//25 24//24 26//26 27//27
f 28//28 25//25 27//27
f 29//29 28//28 27//27 30//30
f 31//31 28//28 29//29 32//32
f 33//33 34//34 31//31 32//32
f 35//35 34//34 33//33 36//36
f 37//37 38//38 35//35 36//36
f 39//39 38//38 37//37 40//40
f 41//41 39//39 40//40 42//42
f 43//43 44//44 41//41 42//42
f 45//45 44//44 43//43 46//46
f 47//47 48//48 45//45 46//46
f 49//49 48//48 47//47 50//50
f 51//51 52//52 49//49 50//50
f 53//53 54//54 52//52 51//51
f 55//55 54//54 53//53 56//56
f 57//57 58//58 55//55 56//56
f 59//59 58//58 57//57 60//60
f 61//61 62//62 59//59 60//60
f 63//63 64//64 62//62 61//61
f 65//65 64//64 63//63 66//66
f 67//67 68//68 65//65 66//66
f 69//69 68//68 67//67 70//70
f 71//71 72//72 69//69 70//70
f 26//26 72//72 71//71 73//73
f 71//71 74//74 73//73
f 73//73 74//74 75//75 30//30
f 75//75 74//74 76//76 77//77
f 76//76 78//78 79//79 77//77
f 79//79 78//78 80//80 81//81
f 82//82 83//83 84//84 80//80
f 78//78 82//82 80//80
f 84//84 83//83 85//85 86//86
f 85//85 87//87 88//88 89//89
f 86//86 85//85 89//89
f 87//87 85//85 90//90 91//91
f 87//87 91//91 92//92
f 89//89 88//88 93//93 94//94
f 93//93 88//88 95//95 96//96
f 97//97 93//93 96//96 98//98
f 95//95 99//99 100//100 96//96
f 97//97 101//101 102//102 94//94
f 93//93 97//97 94//94
f 101//101 103//103 104//104 102//102
f 105//105 103//103 101//101 106//106
f 107//107 108//108 105//105 106//106
f 104//104 109//109 110//110 102//102
f 109//109 104//104 81//81
f 109//109 111//111 112//112 110//110
f 106//106 101//101 97//97 113//113
f 102//102 110//110 94//94
f 110//110 112//112 89//89 94//94
f 112//112 86//86 89//89
f 85//85 83//83 114//114 90//90
f 114//114 115//115 116//116 90//90
f 112//112 111//111 84//84 86//86
f 83//83 82//82 117//117 114//114
f 117//117 82//82 118//118
f 103//103 119//119 79//79 81//81
f 104//104 103//103 81//81
f 80//80 111//111 109//109 81//81
f 118//118 82//82 78//78 76//76
f 77//77 79//79 119//119 120//120
f 119//119 121//121 120//120
f 63//63 115//115 66//66
f 64//64 122//122 123//123 62//62
f 116//116 115//115 63//63 61//61
f 62//62 123//123 59//59
f 116//116 61//61 60//60
f 58//58 124//124 125//125 55//55
f 124//124 126//126 125//125
f 125//125 126//126 127//127 128//128
f 128//128 127//127 129//129 130//130
f 130//130 129//129 131//131 132//132
f 131//131 133//133 132//132
f 131//131 134//134 135//135 133//133
f 134//134 136//136 137//137 135//135
f 136//136 138//138 139//139 137//137
f 139//139 138//138 140//140
f 137//137 141//141 142//142 135//135
f 143//143 144//144 128//128 130//130
f 91//91 57//57 56//56 92//92
f 128//128 144//144 54//54 55//55
f 125//125 128//128 55//55
f 56//56 53//53 99//99 95//95
f 92//92 56//56 95//95
f 99//99 53//53 51//51
f 52//52 144//144 143//143 49//49
f 100//100 99//99 51//51 50//50
f 143//143 48//48 49//49
f 47//47 100//100 50//50
f 143//143 130//130 132//132 45//45
f 48//48 143//143 45//45
f 100//100 47//47 46//46 98//98
f 96//96 100//100 98//98
f 46//46 43//43 113//113 98//98
f 133//133 135//135 142//142 41//41
f 44//44 133//133 41//41
f 42//42 107//107 106//106 113//113
f 43//43 42//42 113//113
f 142//142 39//39 41//41
f 40//40 107//107 42//42
f 142//142 141//141 38//38 39//39
f 37//37 108//108 107//107 40//40
f 108//108 37//37 36//36
f 137//137 139//139 34//34 35//35
f 141//141 137//137 35//35
f 36//36 33//33 121//121 105//105
f 108//108 36//36 105//105
f 34//34 139//139 140//140 31//31
f 121//121 33//33 32//32 120//120
f 75//75 29//29 30//30
f 27//27 26//26 73//73 30//30
f 24//24 22//22 3//3 69//69
f 72//72 24//24 69//69
f 17//17 136//136 134//134 15//15
f 129//129 127//127 12//12 14//14
f 11//11 10//10 16//16 13//13
f 123//123 122//122 5//5 7//7
f 4//4 1//1 20//20 19//19
f 8//8 4//4 19//19
f 2//2 5//5 122//122 65//65
f 68//68 2//2 65//65
f 7//7 6//6 126//126 124//124
f 20//20 1//1 3//3 22//22
f 10//10 8//8 19//19
f 126//126 6//6 9//9 12//12
f 127//127 126//126 12//12
f 138//138 21//21 23//23 140//140
f 138//138 136//136 17//17 18//18
f 21//21 138//138 18//18
f 134//134 131//131 129//129 14//14
f 15//15 134//134 14//14
f 3//3 2//2 68//68 69//69
f 122//122 64//64 65//65
f 7//7 124//124 58//58 59//59
f 123//123 7//7 59//59
f 24//24 72//72 26//26
f 54//54 144//144 52//52
f 23//23 25//25 28//28 31//31
f 140//140 23//23 31//31
f 38//38 141//141 35//35
f 132//132 133//133 44//44 45//45
f 70//70 67//67 117//117 118//118
f 67//67 66//66 115//115 114//114
f 117//117 67//67 114//114
f 116//116 60//60 57//57 91//91
f 90//90 116//116 91//91
f 71//71 70//70 118//118 76//76
f 74//74 71//71 76//76
f 84//84 111//111 80//80
f 88//88 87//87 92//92 95//95
f 29//29 75//75 77//77 120//120
f 32//32 29//29 120//120
f 121//121 119//119 103//103 105//105
f 113//113 97//97 98//98
